# xmcd
# 
# Track frame offsets:
#     150
#     24413
#     37978
#     51990
#     65520
#     76128
#     92528
#     106005
#     116663
#     128520
#     140958
#     158718
# 
# Disc length: 2404
# 
# Revision: 7
# Processed by: cddbd v1.5.2PL0 Copyright (c) Steve Scherf et al.
# Submitted via: fre:ac v1.0.17
# 
DISCID=9309620c
DTITLE=Sly And The Family Stone - Greatest Hits
DYEAR=1970
DGENRE=Funk
TTITLE0=I Want To Take You Higher
TTITLE1=Everybody Is A Star
TTITLE2=Stand
TTITLE3=Life
TTITLE4=Fun
TTITLE5=You Can Make It If You Try
TTITLE6=Dance To The Music
TTITLE7=Everyday People
TTITLE8=Hot Fun In The Summertime
TTITLE9=M'Lady
TTITLE10=Sing A Simple Song
TTITLE11=Thank You (Falettinme Be Mice Elf Agin)
EXTD=
EXTT0=
EXTT1=
EXTT2=
EXTT3=
EXTT4=
EXTT5=
EXTT6=
EXTT7=
EXTT8=
EXTT9=
EXTT10=
EXTT11=
PLAYORDER=
